<svg xmlns="http://www.w3.org/2000/svg" xmlns:xlink="http://www.w3.org/1999/xlink" width="2000" zoomAndPan="magnify" viewBox="0 0 1500 1499.999933" height="2000" preserveAspectRatio="xMidYMid meet" version="1.0"><defs><g/><clipPath id="e73310deb5"><path d="M 750 0 C 335.785156 0 0 335.785156 0 750 C 0 1164.214844 335.785156 1500 750 1500 C 1164.214844 1500 1500 1164.214844 1500 750 C 1500 335.785156 1164.214844 0 750 0 Z M 750 0 " clip-rule="nonzero"/></clipPath><clipPath id="bc39b3afc8"><path d="M 0 0 L 1500 0 L 1500 1500 L 0 1500 Z M 0 0 " clip-rule="nonzero"/></clipPath><clipPath id="86fd118345"><path d="M 750 0 C 335.785156 0 0 335.785156 0 750 C 0 1164.214844 335.785156 1500 750 1500 C 1164.214844 1500 1500 1164.214844 1500 750 C 1500 335.785156 1164.214844 0 750 0 Z M 750 0 " clip-rule="nonzero"/></clipPath><clipPath id="4e606f47c5"><rect x="0" width="1500" y="0" height="1500"/></clipPath></defs><g clip-path="url(#e73310deb5)"><g transform="matrix(1, 0, 0, 1, 0, 0.000000000000112861)"><g clip-path="url(#4e606f47c5)"><g clip-path="url(#bc39b3afc8)"><g clip-path="url(#86fd118345)"><rect x="-330" width="2160" fill="#0a0a0a" height="2159.999904" y="-329.999985" fill-opacity="1"/></g></g></g></g></g><g fill="#ffffff" fill-opacity="1"><g transform="translate(197.420557, 1105.830581)"><g><path d="M 674.859375 -574.71875 C 688.960938 -574.71875 699.019531 -571.503906 705.03125 -565.078125 C 711.039062 -558.648438 714.046875 -547.765625 714.046875 -532.421875 C 714.046875 -517.085938 711.039062 -506.207031 705.03125 -499.78125 C 699.019531 -493.351562 688.960938 -490.140625 674.859375 -490.140625 L 634.4375 -490.140625 L 449.71875 -295.453125 L 649.359375 -84.59375 L 681.078125 -84.59375 C 695.179688 -84.59375 705.238281 -81.378906 711.25 -74.953125 C 717.257812 -68.523438 720.265625 -57.640625 720.265625 -42.296875 C 720.265625 -26.953125 717.257812 -16.066406 711.25 -9.640625 C 705.238281 -3.210938 695.179688 0 681.078125 0 L 467.125 0 C 453.03125 0 442.972656 -3.210938 436.953125 -9.640625 C 430.941406 -16.066406 427.9375 -26.953125 427.9375 -42.296875 C 427.9375 -57.640625 430.941406 -68.523438 436.953125 -74.953125 C 442.972656 -81.378906 453.03125 -84.59375 467.125 -84.59375 L 526.828125 -84.59375 L 377.5625 -245.078125 L 228.90625 -84.59375 L 278.03125 -84.59375 C 292.132812 -84.59375 302.191406 -81.378906 308.203125 -74.953125 C 314.210938 -68.523438 317.21875 -57.640625 317.21875 -42.296875 C 317.21875 -26.953125 314.210938 -16.066406 308.203125 -9.640625 C 302.191406 -3.210938 292.132812 0 278.03125 0 L 82.734375 0 C 68.628906 0 58.570312 -3.210938 52.5625 -9.640625 C 46.550781 -16.066406 43.546875 -26.953125 43.546875 -42.296875 C 43.546875 -57.640625 46.550781 -68.523438 52.5625 -74.953125 C 58.570312 -81.378906 68.628906 -84.59375 82.734375 -84.59375 L 113.828125 -84.59375 L 315.984375 -296.703125 L 133.109375 -490.140625 L 88.953125 -490.140625 C 74.847656 -490.140625 64.789062 -493.351562 58.78125 -499.78125 C 52.769531 -506.207031 49.765625 -517.085938 49.765625 -532.421875 C 49.765625 -547.765625 52.769531 -558.648438 58.78125 -565.078125 C 64.789062 -571.503906 74.847656 -574.71875 88.953125 -574.71875 L 302.921875 -574.71875 C 317.015625 -574.71875 327.066406 -571.503906 333.078125 -565.078125 C 339.097656 -558.648438 342.109375 -547.765625 342.109375 -532.421875 C 342.109375 -517.085938 339.097656 -506.207031 333.078125 -499.78125 C 327.066406 -493.351562 317.015625 -490.140625 302.921875 -490.140625 L 255.640625 -490.140625 L 387.515625 -347.078125 L 519.984375 -490.140625 L 485.796875 -490.140625 C 471.691406 -490.140625 461.632812 -493.351562 455.625 -499.78125 C 449.613281 -506.207031 446.609375 -517.085938 446.609375 -532.421875 C 446.609375 -547.765625 449.613281 -558.648438 455.625 -565.078125 C 461.632812 -571.503906 471.691406 -574.71875 485.796875 -574.71875 Z M 674.859375 -574.71875 "/></g></g></g><g fill="#ffffff" fill-opacity="1"><g transform="translate(706.472896, 1105.830581)"><g><path d="M 375.6875 -829.75 C 413.007812 -829.75 445.5625 -823.523438 473.34375 -811.078125 C 501.125 -798.640625 522.375 -781.222656 537.09375 -758.828125 C 551.8125 -736.441406 559.171875 -710.734375 559.171875 -681.703125 C 559.171875 -631.523438 535.953125 -594 489.515625 -569.125 C 516.878906 -560 538.128906 -545.070312 553.265625 -524.34375 C 568.398438 -503.613281 575.96875 -477.90625 575.96875 -447.21875 C 575.96875 -397.875 559.070312 -359.207031 525.28125 -331.21875 C 491.488281 -303.226562 441.832031 -289.234375 376.3125 -289.234375 C 345.625 -289.234375 314.9375 -292.65625 284.25 -299.5 C 253.570312 -306.34375 226 -316.398438 201.53125 -329.671875 C 192.40625 -334.640625 187.84375 -342.722656 187.84375 -353.921875 C 187.84375 -360.972656 189.503906 -368.851562 192.828125 -377.5625 C 200.285156 -397.050781 210.441406 -406.796875 223.296875 -406.796875 C 227.441406 -406.796875 231.382812 -405.96875 235.125 -404.3125 C 256.269531 -393.53125 278.765625 -385.023438 302.609375 -378.796875 C 326.453125 -372.578125 349.570312 -369.46875 371.96875 -369.46875 C 409.28125 -369.46875 438.097656 -376.207031 458.421875 -389.6875 C 478.742188 -403.164062 488.90625 -422.550781 488.90625 -447.84375 C 488.90625 -475.21875 479.054688 -494.5 459.359375 -505.6875 C 439.660156 -516.875 411.359375 -522.46875 374.453125 -522.46875 L 342.109375 -522.46875 C 323.859375 -522.46875 314.734375 -535.320312 314.734375 -561.03125 C 314.734375 -572.644531 316.910156 -582.078125 321.265625 -589.328125 C 325.617188 -596.585938 332.566406 -600.21875 342.109375 -600.21875 L 366.359375 -600.21875 C 401.191406 -600.21875 427.523438 -606.226562 445.359375 -618.25 C 463.191406 -630.28125 472.109375 -649.359375 472.109375 -675.484375 C 472.109375 -699.535156 462.984375 -717.882812 444.734375 -730.53125 C 426.492188 -743.175781 401.195312 -749.5 368.84375 -749.5 C 336.09375 -749.5 305.617188 -743.488281 277.421875 -731.46875 L 277.421875 -692.28125 C 277.421875 -681.5 274.101562 -673.515625 267.46875 -668.328125 C 260.832031 -663.148438 250.050781 -660.5625 235.125 -660.5625 C 220.195312 -660.5625 209.515625 -663.148438 203.078125 -668.328125 C 196.648438 -673.515625 193.4375 -681.5 193.4375 -692.28125 L 193.4375 -760.703125 C 193.4375 -772.722656 197.789062 -781.429688 206.5 -786.828125 C 230.144531 -800.921875 256.894531 -811.597656 286.75 -818.859375 C 316.601562 -826.117188 346.25 -829.75 375.6875 -829.75 Z M 375.6875 -829.75 "/></g></g></g></svg>